<?xml version="1.0" encoding="UTF-8"?>
<svg id="Layer_1" data-name="Layer 1" xmlns="http://www.w3.org/2000/svg" xmlns:xlink="http://www.w3.org/1999/xlink" viewBox="0 0 7.73 7.69">
  <defs>
    <style>
      .cls-1 {
        fill: url(#linear-gradient-2);
      }

      .cls-2 {
        fill: url(#linear-gradient);
      }
    </style>
    <linearGradient id="linear-gradient" x1="1.82" y1="2.87" x2="5.03" y2="2.87" gradientUnits="userSpaceOnUse">
      <stop offset="0" stop-color="#23a6f5"/>
      <stop offset="1" stop-color="#1d58ff"/>
    </linearGradient>
    <linearGradient id="linear-gradient-2" x1="2.49" y1="4.86" x2="5.71" y2="4.86" gradientUnits="userSpaceOnUse">
      <stop offset="0" stop-color="#3fcbd9"/>
      <stop offset=".55" stop-color="#1eb2d8"/>
      <stop offset="1" stop-color="#009dd8"/>
    </linearGradient>
  </defs>
  <path class="cls-2" d="M4.66,1.97h0s0,0,0,0l.05-.05.05-.05h0s.07-.07.07-.07c.13-.13.2-.3.2-.48V.3s0-.03,0-.04l-2.75,2.76h0s-.03.03-.03.03c0,0-.19.16-.31.42-.16.34-.15.67.03.98.1.17.48.52,1.11,1.01,0,0,.02,0,.02,0,0,0,.01,0,.01-.02v-1.08s-.01-.05-.03-.07l-.29-.29s-.04-.05-.04-.09.01-.06.04-.09"/>
  <path class="cls-1" d="M2.69,5.93c-.13.13-.2.3-.2.48v1.01s0,.03,0,.04l2.77-2.77h0s.03-.03.03-.03c0,0,.19-.16.31-.42.16-.34.15-.67-.03-.98-.1-.17-.48-.52-1.11-1.01,0,0-.02,0-.02,0,0,0-.01,0-.01.02v1.08s.01.05.03.07l.29.29s.04.05.04.09-.01.06-.04.09"/>
</svg>