<?xml version="1.0" encoding="UTF-8"?>
<svg id="Layer_2" data-name="Layer 2" xmlns="http://www.w3.org/2000/svg" xmlns:xlink="http://www.w3.org/1999/xlink" viewBox="0 0 40.19 12.84">
  <defs>
    <style>
      .cls-1 {
        fill: url(#linear-gradient-2);
      }

      .cls-2 {
        fill: url(#linear-gradient);
      }

      .cls-3 {
        fill: #fff;
      }
    </style>
    <linearGradient id="linear-gradient" x1="0" y1="4.64" x2="5.71" y2="4.64" gradientUnits="userSpaceOnUse">
      <stop offset="0" stop-color="#51a3ee"/>
      <stop offset="1" stop-color="#2e57f5"/>
    </linearGradient>
    <linearGradient id="linear-gradient-2" x1="1.19" y1="8.19" x2="6.93" y2="8.19" gradientUnits="userSpaceOnUse">
      <stop offset="0" stop-color="#6bc7d5"/>
      <stop offset=".75" stop-color="#4fa6d2"/>
      <stop offset="1" stop-color="#459ad2"/>
    </linearGradient>
  </defs>
  <g id="Layer_1-2" data-name="Layer 1">
    <g>
      <g>
        <path class="cls-2" d="M5.05,3.04h0s0,0,0,0l.09-.09.09-.09h0s.13-.13.13-.13c.23-.23.35-.53.35-.85V.08s0-.06,0-.08L.8,4.91h0s-.05.05-.05.05c0,0-.33.29-.55.75-.29.6-.27,1.19.06,1.75.18.31.86.93,1.97,1.81.02.01.03,0,.04,0,0,0,.02-.01.02-.03v-1.92s-.02-.09-.05-.12l-.52-.52s-.06-.09-.06-.15.02-.11.06-.15"/>
        <path class="cls-1" d="M1.54,10.11c-.23.23-.35.53-.35.85v1.8s0,.06,0,.08l4.93-4.94h0s.05-.05.05-.05c0,0,.33-.29.55-.75.29-.6.27-1.19-.06-1.75-.18-.31-.86-.93-1.97-1.81-.02-.01-.03,0-.04,0,0,0-.02.01-.02.03v1.92s.02.09.05.12l.52.52s.06.09.06.15-.02.11-.06.15"/>
      </g>
      <g>
        <path class="cls-3" d="M10.63,5.76c-.53-.15-.59-.21-.56-.4.05-.3.25-.45.74-.45.3,0,.71.07,1.08.21l.42-.78c-.58-.22-1.12-.31-1.57-.31-1.04,0-1.61.45-1.76,1.25-.16.91.41,1.15,1.34,1.39.39.11.55.14.52.39-.04.35-.38.54-.91.54-.39,0-.72-.11-1.12-.23l-.42.79c.52.19,1.13.31,1.65.31h0c.99,0,1.72-.45,1.88-1.32.19-1.03-.68-1.22-1.3-1.38Z"/>
        <path class="cls-3" d="M14.17,7.36c-.23.21-.41.32-.61.32-.15,0-.19-.07-.16-.28l.36-2.06h-1.03l-.4,2.23c-.1.55.12.9.71.9.33,0,.61-.11,1-.4l-.06.31h1.04l.54-3.04h-1.04l-.36,2.02Z"/>
        <path class="cls-3" d="M18.01,4.66c.11,0,.24,0,.37.04l.39-.66c-.29-.1-.6-.16-.93-.16-.65,0-1.14.23-1.26.94l-.09.52h-.49l-.13.73h.49l-.41,2.31h1.04l.41-2.31h.62l.13-.73h-.62l.06-.36c.04-.22.17-.32.42-.32Z"/>
        <path class="cls-3" d="M20.25,4.98c.04-.22.17-.32.42-.32.11,0,.24,0,.37.04l.39-.66c-.29-.1-.6-.16-.93-.16-.65,0-1.14.23-1.26.94l-.09.52h-.49l-.13.73h.49l-.41,2.31h1.04l.41-2.31h.62l.13-.73h-.62l.06-.36Z"/>
        <path class="cls-3" d="M23.52,5.25c-.38,0-.67.13-1.18.55l.08-.46h-1.04l-.54,3.04h1.04l.31-1.77c.45-.39.66-.5.96-.5.05,0,.08,0,.11,0l.49-.85c-.07,0-.13-.02-.24-.02Z"/>
        <path class="cls-3" d="M25.72,5.34l-.06.32c-.25-.3-.45-.41-.79-.41-.76,0-1.14.51-1.32,1.54-.19,1.1.04,1.68.86,1.68.28,0,.48-.06.83-.36l-.05.27h1.04l.54-3.04h-1.04ZM25.35,7.42c-.21.19-.34.25-.52.25-.29,0-.35-.15-.25-.74.12-.66.3-.89.66-.89.12,0,.21.02.33.14l-.22,1.24Z"/>
        <path class="cls-3" d="M29.16,5.66c-.26-.3-.46-.41-.83-.41-.8,0-1.19.51-1.37,1.54-.19,1.1.06,1.68.91,1.68.29,0,.5-.06.86-.36l-.08.43c-.05.3-.21.41-.55.41-.28,0-.65-.06-1.01-.23l-.42.68c.5.22,1,.33,1.46.33.79,0,1.4-.28,1.55-1.12l.58-3.28h-1.04l-.06.32ZM28.85,7.41c-.23.2-.38.26-.57.26-.32,0-.39-.14-.28-.74.12-.68.33-.89.7-.89.14,0,.24.03.37.15l-.22,1.22Z"/>
        <path class="cls-3" d="M31.55,3.91c-.4,0-.56.12-.63.49-.08.45.08.64.55.64.4,0,.56-.12.63-.49.08-.45-.09-.64-.55-.64Z"/>
        <polygon class="cls-3" points="30.3 8.38 31.34 8.38 31.87 5.34 30.84 5.34 30.3 8.38"/>
        <path class="cls-3" d="M34.26,5.34l-.36,2.02c-.23.21-.41.32-.61.32-.15,0-.19-.07-.16-.28l.36-2.06h-1.03l-.4,2.23c-.1.55.12.9.71.9.33,0,.61-.11,1-.4l-.06.31h1.04l.54-3.04h-1.04Z"/>
        <path class="cls-3" d="M39.47,5.25c-.35,0-.62.13-1.03.47-.07-.29-.29-.47-.7-.47-.33,0-.58.11-.95.4l.05-.3h-1.04l-.54,3.04h1.04l.36-2.05c.21-.19.38-.29.56-.29.16,0,.18.07.14.27l-.36,2.07h1.04l.36-2.05c.2-.18.37-.29.56-.29.16,0,.17.08.14.27l-.36,2.07h1.04l.39-2.23c.1-.54-.12-.9-.7-.9Z"/>
      </g>
    </g>
  </g>
</svg>